solid OpenSCAD_Model
  facet normal -0 0 1
    outer loop
      vertex 550 -1050 460
      vertex 2050 -1450 460
      vertex 2050 -1050 460
    endloop
  endfacet
  facet normal 0 0 1
    outer loop
      vertex 2050 -1450 460
      vertex 550 -1050 460
      vertex 550 -1450 460
    endloop
  endfacet
  facet normal 0 0 -1
    outer loop
      vertex 550 -1450 420
      vertex 2050 -1050 420
      vertex 2050 -1450 420
    endloop
  endfacet
  facet normal -0 0 -1
    outer loop
      vertex 2050 -1050 420
      vertex 550 -1450 420
      vertex 550 -1050 420
    endloop
  endfacet
  facet normal 0 -1 0
    outer loop
      vertex 550 -1450 420
      vertex 2050 -1450 460
      vertex 550 -1450 460
    endloop
  endfacet
  facet normal 0 -1 -0
    outer loop
      vertex 2050 -1450 460
      vertex 550 -1450 420
      vertex 2050 -1450 420
    endloop
  endfacet
  facet normal 1 -0 0
    outer loop
      vertex 2050 -1450 460
      vertex 2050 -1050 420
      vertex 2050 -1050 460
    endloop
  endfacet
  facet normal 1 0 0
    outer loop
      vertex 2050 -1050 420
      vertex 2050 -1450 460
      vertex 2050 -1450 420
    endloop
  endfacet
  facet normal 0 1 -0
    outer loop
      vertex 2050 -1050 420
      vertex 550 -1050 460
      vertex 2050 -1050 460
    endloop
  endfacet
  facet normal 0 1 0
    outer loop
      vertex 550 -1050 460
      vertex 2050 -1050 420
      vertex 550 -1050 420
    endloop
  endfacet
  facet normal -1 0 0
    outer loop
      vertex 550 -1450 420
      vertex 550 -1050 460
      vertex 550 -1050 420
    endloop
  endfacet
  facet normal -1 -0 0
    outer loop
      vertex 550 -1050 460
      vertex 550 -1450 420
      vertex 550 -1450 460
    endloop
  endfacet
endsolid OpenSCAD_Model
